<?xml version="1.0" encoding="UTF-8" standalone="no"?>
<!DOCTYPE svg PUBLIC "-//W3C//DTD SVG 1.1//EN"
 "http://www.w3.org/Graphics/SVG/1.1/DTD/svg11.dtd">
<!-- Generated by graphviz version 2.40.1 (20161225.0304)
 -->
<!-- Title: G Pages: 1 -->
<svg width="206pt" height="260pt"
 viewBox="0.00 0.00 206.00 260.00" xmlns="http://www.w3.org/2000/svg" xmlns:xlink="http://www.w3.org/1999/xlink">
<g id="graph0" class="graph" transform="scale(1 1) rotate(0) translate(4 256)">
<title>G</title>
<polygon fill="#ffffff" stroke="transparent" points="-4,4 -4,-256 202,-256 202,4 -4,4"/>
<!-- A -->
<g id="node1" class="node">
<title>A</title>
<polygon fill="none" stroke="#000000" points="126,-36 72,-36 72,0 126,0 126,-36"/>
<text text-anchor="middle" x="99" y="-13.8" font-family="Times,serif" font-size="14.00" fill="#000000">A</text>
</g>
<!-- B -->
<g id="node2" class="node">
<title>B</title>
<polygon fill="none" stroke="#000000" points="90,-108 36,-108 36,-72 90,-72 90,-108"/>
<text text-anchor="middle" x="63" y="-85.8" font-family="Times,serif" font-size="14.00" fill="#000000">B</text>
</g>
<!-- A&#45;&gt;B -->
<g id="edge1" class="edge">
<title>A&#45;&gt;B</title>
<path fill="none" stroke="#000000" d="M89.9157,-36.1686C85.9385,-44.1229 81.1845,-53.631 76.7861,-62.4277"/>
<polygon fill="#000000" stroke="#000000" points="73.5483,-61.0772 72.2066,-71.5867 79.8093,-64.2077 73.5483,-61.0772"/>
</g>
<!-- C -->
<g id="node3" class="node">
<title>C</title>
<polygon fill="none" stroke="#000000" points="162,-108 108,-108 108,-72 162,-72 162,-108"/>
<text text-anchor="middle" x="135" y="-85.8" font-family="Times,serif" font-size="14.00" fill="#000000">C</text>
</g>
<!-- A&#45;&gt;C -->
<g id="edge2" class="edge">
<title>A&#45;&gt;C</title>
<path fill="none" stroke="#000000" d="M108.0843,-36.1686C112.0615,-44.1229 116.8155,-53.631 121.2139,-62.4277"/>
<polygon fill="#000000" stroke="#000000" points="118.1907,-64.2077 125.7934,-71.5867 124.4517,-61.0772 118.1907,-64.2077"/>
</g>
<!-- D -->
<g id="node4" class="node">
<title>D</title>
<polygon fill="none" stroke="#000000" points="54,-180 0,-180 0,-144 54,-144 54,-180"/>
<text text-anchor="middle" x="27" y="-157.8" font-family="Times,serif" font-size="14.00" fill="#000000">D</text>
</g>
<!-- B&#45;&gt;D -->
<g id="edge3" class="edge">
<title>B&#45;&gt;D</title>
<path fill="none" stroke="#000000" d="M53.9157,-108.1686C49.9385,-116.1229 45.1845,-125.631 40.7861,-134.4277"/>
<polygon fill="#000000" stroke="#000000" points="37.5483,-133.0772 36.2066,-143.5867 43.8093,-136.2077 37.5483,-133.0772"/>
</g>
<!-- E -->
<g id="node5" class="node">
<title>E</title>
<polygon fill="none" stroke="#000000" points="126,-180 72,-180 72,-144 126,-144 126,-180"/>
<text text-anchor="middle" x="99" y="-157.8" font-family="Times,serif" font-size="14.00" fill="#000000">E</text>
</g>
<!-- B&#45;&gt;E -->
<g id="edge4" class="edge">
<title>B&#45;&gt;E</title>
<path fill="none" stroke="#000000" d="M72.0843,-108.1686C76.0615,-116.1229 80.8155,-125.631 85.2139,-134.4277"/>
<polygon fill="#000000" stroke="#000000" points="82.1907,-136.2077 89.7934,-143.5867 88.4517,-133.0772 82.1907,-136.2077"/>
</g>
<!-- C&#45;&gt;D -->
<g id="edge5" class="edge">
<title>C&#45;&gt;D</title>
<path fill="none" stroke="#000000" d="M107.747,-108.1686C94.0611,-117.2926 77.3085,-128.461 62.6173,-138.2551"/>
<polygon fill="#000000" stroke="#000000" points="60.6233,-135.3779 54.2442,-143.8372 64.5062,-141.2023 60.6233,-135.3779"/>
</g>
<!-- F -->
<g id="node6" class="node">
<title>F</title>
<polygon fill="none" stroke="#000000" points="198,-180 144,-180 144,-144 198,-144 198,-180"/>
<text text-anchor="middle" x="171" y="-157.8" font-family="Times,serif" font-size="14.00" fill="#000000">F</text>
</g>
<!-- C&#45;&gt;F -->
<g id="edge6" class="edge">
<title>C&#45;&gt;F</title>
<path fill="none" stroke="#000000" d="M144.0843,-108.1686C148.0615,-116.1229 152.8155,-125.631 157.2139,-134.4277"/>
<polygon fill="#000000" stroke="#000000" points="154.1907,-136.2077 161.7934,-143.5867 160.4517,-133.0772 154.1907,-136.2077"/>
</g>
<!-- D&#45;&gt;E -->
<!-- O -->
<g id="node7" class="node">
<title>O</title>
<polygon fill="none" stroke="#000000" points="126,-252 72,-252 72,-216 126,-216 126,-252"/>
<text text-anchor="middle" x="99" y="-229.8" font-family="Times,serif" font-size="14.00" fill="#000000">O</text>
</g>
<!-- D&#45;&gt;O -->
<g id="edge7" class="edge">
<title>D&#45;&gt;O</title>
<path fill="none" stroke="#000000" d="M45.1686,-180.1686C53.7152,-188.7152 64.0557,-199.0557 73.3802,-208.3802"/>
<polygon fill="#000000" stroke="#000000" points="71.0408,-210.9905 80.5867,-215.5867 75.9905,-206.0408 71.0408,-210.9905"/>
</g>
<!-- E&#45;&gt;F -->
<!-- E&#45;&gt;O -->
<g id="edge8" class="edge">
<title>E&#45;&gt;O</title>
<path fill="none" stroke="#000000" d="M99,-180.1686C99,-187.869 99,-197.0257 99,-205.5834"/>
<polygon fill="#000000" stroke="#000000" points="95.5001,-205.5867 99,-215.5867 102.5001,-205.5868 95.5001,-205.5867"/>
</g>
<!-- F&#45;&gt;O -->
<g id="edge9" class="edge">
<title>F&#45;&gt;O</title>
<path fill="none" stroke="#000000" d="M152.8314,-180.1686C144.2848,-188.7152 133.9443,-199.0557 124.6198,-208.3802"/>
<polygon fill="#000000" stroke="#000000" points="122.0095,-206.0408 117.4133,-215.5867 126.9592,-210.9905 122.0095,-206.0408"/>
</g>
</g>
</svg>
